<svg width="512" height="512" viewBox="0 0 512 512" fill="none" xmlns="http://www.w3.org/2000/svg">
<path d="M106.667 348.437H234.667V469.333C234.667 474.991 236.914 480.417 240.915 484.418C244.916 488.419 250.342 490.667 256 490.667H405.333C410.991 490.667 416.417 488.419 420.418 484.418C424.419 480.417 426.667 474.991 426.667 469.333V184.896C426.667 179.238 424.419 173.812 420.418 169.811C416.417 165.81 410.991 163.563 405.333 163.563H277.333V42.6666C277.333 37.0087 275.086 31.5825 271.085 27.5817C267.084 23.5809 261.658 21.3333 256 21.3333H106.667C101.009 21.3333 95.5825 23.5809 91.5817 27.5817C87.5809 31.5825 85.3333 37.0087 85.3333 42.6666V327.104C85.3333 332.762 87.5809 338.188 91.5817 342.189C95.5825 346.19 101.009 348.437 106.667 348.437ZM277.333 206.229H384V305.771H277.333V206.229ZM277.333 348.437H384V448H277.333V348.437ZM128 64H234.667V163.563H128V64ZM128 206.229H234.667V305.771H128V206.229Z" fill="white"/>
</svg>
